<?xml version="1.0" encoding="utf-8"?>
<!-- Generator: Adobe Illustrator 16.0.0, SVG Export Plug-In . SVG Version: 6.00 Build 0)  -->
<!DOCTYPE svg PUBLIC "-//W3C//DTD SVG 1.1//EN" "http://www.w3.org/Graphics/SVG/1.1/DTD/svg11.dtd">
<svg version="1.1" id="Layer_1" xmlns="http://www.w3.org/2000/svg" xmlns:xlink="http://www.w3.org/1999/xlink" x="0px" y="0px"
	 width="1000px" height="720.453px" viewBox="-202.36 60.719 1000 720.453" enable-background="new -202.36 60.719 1000 720.453"
	 xml:space="preserve">
<title>rockos-modern-life</title>
<g>
	<path d="M466.031,122.194c18.369,0.367,35.738,5.4,52.941,11.335c2.483,0.799,5.146,0.868,7.667,0.199
		c7.667-1.8,15.235-3.833,22.87-5.801c0.966-0.233,1.867-0.733,2.833-0.866c3.334-0.5,6.668-1.5,9.002,1.4
		c2.333,2.9,0,5.667-0.967,8.4c-0.343,1.206-0.907,2.337-1.667,3.334c-2.101,2.934-1.602,3.701,2.101,5.034
		c47.64,17.236,94.112,36.672,135.252,67.143c2.333,1.733,3.334,1.367,5.1-0.934c6.668-8.334,7.135-14.335-0.834-23.836
		c-2.866-3.334-3.833-5.201,1.201-6.668c3.667-1.167,4.767-3.067,1.6-6.434c-2.068-1.829-2.266-4.989-0.437-7.059
		c0.545-0.616,1.232-1.089,2.004-1.376c6.589-3.761,12.277-8.915,16.669-15.102c1.951-3.251,6.073-4.456,9.468-2.767
		c10.7,4.4,21.669,8.868,23.971,21.97c2.301,13.102-4.668,22.303-13.636,30.271c-8.349,8.048-17.261,15.491-26.67,22.27
		c-2.767,1.767-2.734,3.333-0.268,5.534c11.585,10.487,21.882,22.316,30.672,35.238c0.976,1.919,3.324,2.685,5.243,1.708
		c0.087-0.043,0.173-0.091,0.257-0.142c11.668-4.163,23.684-7.275,35.905-9.301c9.501-1.867,11.968,0,11.201,9.668
		c-0.268,3.333-0.801,6.667-0.767,10.001c0,7.602-1.301,8.501-9.436,10.235c-2.699,0.567-5.434,0.866-8.167,1.2
		c-1.034,0-2.534,0.2-2.501,1.167c0,6.668-5.667,6.901-9.602,8.868c-3.933,1.966-2.733,4.367-1.699,7.368
		c7.899,23.593,10.896,48.551,8.801,73.342c-2.699,36.672-16.669,69.577-33.071,101.713c-15.158,29.648-33.013,57.838-53.34,84.213
		c-20.67,26.496-43.908,50.886-69.377,72.809c-33.571,29.405-72.81,48.941-112.782,67.344
		c-45.983,21.342-93.809,38.469-142.885,51.173c-27.69,7.268-55.731,13.131-84.012,17.569c-22.603,3.334-45.273,5.834-68.108,7.334
		c-27.374,1.64-54.815,1.862-82.212,0.668c-41.501-1.027-82.728-7.062-122.783-17.97c-41.939-12.034-77.945-34.038-100.014-73.577
		c-9.666-17.583-13.593-37.748-11.234-57.675c2.934-29.704,15.168-55.673,31.536-80.01c6.315-8.752,10.183-19.028,11.202-29.771
		c0.651-10.477-2.873-20.785-9.8-28.67c-10.27-12.468-23.937-19.77-38.306-25.804c-21.469-8.901-43.338-17.104-61.908-31.472
		c-14.568-11.269-26.004-24.669-28.47-43.873c0-0.2-0.601-0.333-0.934-0.499v-18.037c3.334-9.334,4.701-19.202,8.968-28.271
		c11.271-22.719,25.558-43.812,42.472-62.708c2.199-1.697,3.114-4.58,2.3-7.235c-8.564-29.228-14.972-59.046-19.17-89.212
		c0.076-3.301-2.531-6.043-5.833-6.134c-7.068-0.867-14.102-2.034-21.07-3.067c-0.666-2.467,1.201-3.333,2.167-4.233
		c17.909-18.789,37.018-36.396,57.208-52.708c22.335-18.974,47.411-34.463,74.377-45.94c18.496-8.105,38.416-12.468,58.607-12.834
		c48.975,0,84.678,28.97,95.013,76.844c1.967,9.234,1.967,9.201,11.435,6.334c23.971-7.234,47.84-14.868,72.41-20.003
		c4.235-0.9,30.771-7.701,38.172-5.234c-1.732,2.1-30.004,6.668-32.337,7.135c-27.435,5.665-54.474,13.103-80.944,22.27
		c-3.112,0.584-5.162,3.582-4.578,6.694c0.013,0.069,0.028,0.138,0.043,0.207c1.014,14.001,0.421,28.072-1.767,41.939
		c-7.768,44.272-27.77,82.845-55.408,117.716c-5.021,5.404-7.579,12.646-7.067,20.003c1.333,20.736,0.466,41.639,0.534,62.442
		c0,3.334,0.333,6.667-3.334,8.268c-3.667,1.6-6.268-1.134-8.668-3.667c-3.624-4.309-7.629-8.281-11.969-11.869
		c0,9.136,0,17.836,0,26.67c0,1.9,0.968,4.467-1.267,5.468c-2.233,0.999-3.5-1.466-4.634-2.935
		c-9.201-11.9-19.469-22.836-29.303-34.205c-1.134-1.299-1.967-3.5-4.1-2.866c-2.135,0.633-1.269,2.733-1.634,4.233
		c-3.956,15.692-7.902,31.405-11.835,47.14c-0.633,2.635-1.333,5.134-4.435,5.802c-2.858,0.564-5.734-0.895-6.967-3.534
		c-1.401-2.2-2.701-4.468-4.067-6.668l-8.602-14.202c-1.357,1.301-2.217,3.034-2.434,4.9c-1.767,7.801-3.334,15.636-5.334,23.336
		c-0.5,2.001-0.2,4.935-2.833,5.534c-2.633,0.601-3.334-2.499-4.135-4.267c-3.087-5.869-6.056-11.78-8.901-17.736
		c-21.334-44.416-39.515-90.28-54.407-137.251c-0.467-1.467-0.433-3.633-1.967-4.134c-2.1-0.633-3.034,1.601-4.067,2.934
		c-7.066,8.968-14.402,17.735-20.968,27.07c-10.662,14.338-18.739,30.426-23.871,47.541c-7.101,25.637-0.866,47.639,19.07,65.208
		c15.168,13.336,33.138,22.27,51.673,30.004c14.901,6.301,30.47,11.201,43.34,21.403c15.902,12.468,25.502,27.604,21.502,48.739
		c-1.585,7.674-4.581,14.988-8.834,21.569c-5.767,9.369-11.935,18.503-16.903,28.372c-11.702,23.336-19.269,47.605-16.27,74.043
		c3.702,32.837,22.204,56.674,47.24,76.676c40.707,32.239,90.012,38.307,138.852,45.773c12.902,1.967,26.104,1.834,39.172,2.668
		c77.098,4.478,154.426-3.011,229.231-22.204c52.617-13.425,103.936-31.499,153.354-54.007
		c46.673-20.87,90.413-45.473,127.684-80.911c36.442-34.457,67.604-74.1,92.48-117.65c15.669-27.503,30.569-55.507,39.271-86.177
		c10.302-36.271,11.068-72.643-0.833-108.881c-1.5-4.467-2.899-5.834-7.302-2.667c-17.867,12.936-28.536,29.371-26.67,52.308
		c0.268,3.333,0.234,6.667,0.234,10.201c0,16.936-4.968,31.904-17.437,43.939c-1.518,1.593-2.869,3.335-4.034,5.201
		c-13.334,20.001-29.804,37.137-45.706,54.874c-0.766,0.866-1.534,2.2-2.866,1.732c-1.334-0.466-1.201-1.966-1.334-3.134
		c-0.668-5.166-1.366-10.301-1.899-15.467c-0.333-3.102-0.701-4.801-4.668-2.936c-5.567,2.601-9.102,0.501-10.701-5.467
		c-1.382-6.055-2.285-12.207-2.7-18.402c-0.866-8.2,0-9.834,7.534-13.634c9.301-4.668,18.635-9.301,27.57-14.67
		c2.77-1.595,4.849-4.161,5.833-7.201c4.801-13.802,9.802-27.502,14.803-41.238c1.444-3.943,2.034-8.147,1.734-12.335
		c-1.727-18.195,4.149-36.295,16.235-50.007c7.611-8.306,16.729-15.093,26.87-20.002c3.166-1.634,4.133-2.901,1.699-6.201
		c-8.3-11.31-17.522-21.914-27.57-31.704c-1.527-2.122-4.486-2.602-6.607-1.074c-0.186,0.134-0.362,0.28-0.526,0.439
		c-8.132,5.494-16.732,10.257-25.704,14.236c-1.066,0.467-2.133,2-3.667,0.399c5.901-7.1,11.669-14.269,17.669-21.202
		c3.334-3.935,3.835-6.668-1.233-10.002c-6.667-3.967-12.935-8.767-19.569-12.901c-35.639-22.337-74.076-38.672-113.616-52.674
		c-3.732-1.334-4.898,0.567-6.666,2.967c-24.419,34.282-51.901,66.273-82.112,95.58c-2.423,2.346-3.501,5.755-2.866,9.068
		c3.334,44.54-0.601,88.812-5.467,133.051c-0.367,3.501-0.834,7.602-5.469,8.302c-4.634,0.699-5.9-3.134-7.634-6.302
		c-2.754-5.874-5.999-11.506-9.702-16.835c-2.799,5.234-0.599,10.703-3.867,15.469c-1.3-2.3-2.266-3.967-3.332-5.7
		c-11.104-20.437-23.338-40.206-35.738-59.809c-2.067-3.334-3.334-3.334-6.368-0.966c-6.901,6.101-14.002,12.001-21.17,17.802
		c-5.135,4.134-10.469,8.035-15.835,11.902c-2.378,2.35-6.05,2.777-8.901,1.033c-3.101-2.067-2.535-5.067-2.268-8.101
		c0-2.067,1.534-4.134,0-6.668c-4.9,2.767-8.535,7.334-13.701,9.068c-1.201-1.134-0.666-2.067-0.468-3.034
		c10.868-54.708,28.904-107.348,47.074-160.022c7.634-22.136,15.669-44.173,24.936-65.675c1.334-3.134,0.601-4.434-2.733-4.634
		c-4.212-0.086-8.412-0.477-12.567-1.167c-5.668-1.2-7.768,1.267-9.102,6.4c-2.034,7.734-4.801,15.269-7.269,22.903
		c-1.033,3.134-2.2,6.067-6.367,6.035c-4.168-0.034-4.967-2.734-5.9-5.734c-0.468-1.4-0.434-3.334-2.901-3.901L341.446,167.2
		c-1.865-7.935-3.099-15.336-4.934-22.636c-0.898-3.568-0.365-9.368-3.867-9.835c-3.499-0.466-4.7,5.235-6.367,8.468
		c-19.277,38.138-31.937,79.273-37.438,121.65c-1.111,6.553-0.573,13.278,1.567,19.569c2.2,5.935,5.501,7.534,11.203,5.001
		c4.134-2.029,8.13-4.323,11.968-6.867c2.767-1.667,5.5-2.701,8.2,0c2.236,2.215,2.507,5.737,0.634,8.268
		c-6.806,13.715-15.968,26.127-27.069,36.671c-8.069,7.135-17.303,11.602-28.504,9.735c-2.468-0.434-3.7,1-5.068,2.434
		c-4.192,4.61-9.287,8.309-14.969,10.868c-10.568,4.634-18.568,0.867-21.869-10.001c-3.853-13.364-4.013-27.523-0.466-40.972
		c15.634-63.342,37.504-124.05,69.375-181.058c0.934-1.667,3.134-3.334,2.235-5.268c-1.168-2.433-3.935-0.966-5.969-0.9
		c-27.815,1.219-55.522,4.248-82.944,9.068c-4.938,0.882-9.953,1.285-14.968,1.199c7.9-4.8,17.068-4.533,25.736-6.067
		c25.648-4.414,51.591-6.887,77.61-7.4c3.8,0.087,7.364-1.839,9.369-5.067c9.285-13.867,21.891-25.19,36.672-32.938
		c7.597-4.057,16.453-5.07,24.771-2.833c11.301,3.034,15.068,18.335,13.968,27.97c-0.084,2.364-0.477,4.706-1.167,6.968
		c-2.767,6.368,0.666,7.501,5.602,7.234c5.368,0.064,10.726,0.499,16.035,1.3c2.635,0.434,5.185-1.147,5.967-3.701
		c2.434-5.234,5.201-10.334,7.867-15.436c0.733-1.367,1.234-3.334,3.334-2.967c2.101,0.366,2.135,2.2,2.769,3.634
		c0.433,0.9,0.599,1.9,0.999,2.833c0.4,0.934-0.166,3.334,1.867,3.134c2.034-0.2,2-1.701,2.7-2.901
		c1.395-2.938,2.988-5.778,4.769-8.501c4.433-5.701,10.167-5.034,13.101,1.533c2.432,5.664,4.038,11.648,4.769,17.77
		c1.565,11.102,1.467,11.168,12.668,12.501c1.767,0.2,3.7-0.267,3.933,2.334c-2.899,2.733-5.667,0-8.367-0.467
		c-4.134-0.601-5.234,0.4-4.967,4.567c0.699,11.369,1.134,22.736,1.433,34.105c0,3.733,1.268,3.867,4.268,2.467
		c11.869-5.701,23.836-11.201,35.738-16.869c7.301-3.334,15.303-5.567,22.47-10.201c-3.395-1.35-6.855-2.53-10.368-3.533
		c-11.634-2.767-23.336-5.301-35.037-7.834C469.031,123.861,467.197,123.861,466.031,122.194z M-49.006,431.935
		c5.467-21.568,10.534-42.972,16.436-64.107c4.4-15.769,9.401-16.869,21.869-5.867c11.869,10.468,22.77,21.937,33.738,33.338
		c1.134,1.134,1.767,3.8,4,2.733c1.6-0.766,0.766-2.901,0.766-4.433c0-19.604-0.066-39.229-0.199-58.875
		c0-1.067,0.499-2.434-1.301-3.334c-1.867,1.867-4.033,5.5-6.901,2.134c-2.866-3.368,1.6-4.601,3.067-6.301
		c21.661-24.241,39.338-51.764,52.374-81.544c13.702-32.471,20.97-66.009,14.97-101.347C81.245,93.823,42.639,62.385-7.267,64.985
		c-25.904,1.367-49.74,10.002-72.376,21.97c-32.271,17.236-60.008,40.272-85.879,66.009c-6.035,6.035-11.867,12.236-18.768,19.403
		c9.401,1.4,17.234,3,25.103,3.634c6.368,0.534,9.101,3.334,9.467,9.535c0.334,3.838,0.992,7.642,1.967,11.369
		c18.803,82.544,51.673,159.355,95.146,231.764C-51.84,429.802-51.473,431.602-49.006,431.935z M456.296,388.93
		c1.8-2,1.399-4.5,1.634-6.668c1.366-14.335,2.934-28.67,3.9-43.072c2-29.571,3.834-59.175,0-88.746
		c-0.409-1.941,0.344-3.944,1.933-5.134c22.137-20.003,41.307-42.472,60.242-65.275c11.415-13.162,21.709-27.258,30.771-42.139
		c1.134-1.966,3.667-4.367,1.968-6.368c-1.7-2-4.601,0-6.668,0.667c-9.068,3.334-18.136,6.368-26.938,10.201
		c-23.501,10.001-46.672,21.103-69.274,33.338c-4.768,2.567-5.435,1.4-5.534-3.334c-0.367-16.669-0.934-33.338-1.867-49.807
		c-0.167-10.172-1.992-20.251-5.401-29.837c-2.166-5.568-4.101-5.734-7.567-0.767c-3.386,5.204-6.246,10.731-8.535,16.502
		c-20.19,47.528-37.751,96.13-52.606,145.586c-9.034,29.004-18.202,58.041-23.704,88.012c-0.365,1.9-1.767,4.4,0,5.567
		c1.768,1.167,3.602-1.066,5.102-2.3c12.868-10.468,25.671-21.07,38.604-31.505c7.802-6.3,11.736-5.867,18.303,1.634
		c1.221,1.369,2.335,2.83,3.334,4.367c13.701,20.97,26.67,42.339,38.706,64.343c0.866,1.7,1.333,3.833,3.533,4.733H456.296z
		 M362.949,142.229c4.268-11.369,7.635-21.903,10.568-32.604c2.018-6.729,2.852-13.756,2.467-20.77
		c-0.966-13.102-9.168-19.402-22.036-17.069c-7.512,1.362-14.616,4.417-20.771,8.935c-11.757,9.027-21.795,20.093-29.637,32.671
		c-21.969,33.338-36.671,70.01-48.173,108.182c-6.368,20.703-11.935,41.539-10.535,63.542c0.768,12.001,1.734,24.003,7.901,34.771
		c7.101,12.435,19.269,15.835,31.771,8.801c2.965-1.676,5.718-3.702,8.2-6.034c9.066-8.948,16.781-19.168,22.903-30.338
		c0.601-1.066,1.8-2.399,0-3.833c-4,2-7.968,4.368-12.235,6.001c-8.934,3.334-15.201,0.4-18.202-8.734
		c-2.392-8.094-2.838-16.639-1.299-24.937c4.274-27.075,11.06-53.694,20.269-79.511c7.602-22.17,16.368-43.906,32.505-61.708
		c7.134-7.901,10.533-7.701,15.502,1.567c3.467,6.601,6.801,13.335,10.768,21.069H362.949z M644.921,425.102
		c0.934,6.468,1.802,11.602,2.367,16.668c0.368,3.334,1.6,3.534,4.2,2c18.202-10.866,37.006-20.836,53.008-35.038
		c10.76-8.963,17.355-21.961,18.236-35.938c0.345-10.811,0.021-21.633-0.968-32.404c-1.3-21.837,6.968-38.506,26.672-49.174
		c9.218-4.852,19.104-8.312,29.336-10.268c4.268-0.9,9.734-0.367,12.535-2.867s0.668-8.734,1.7-13.335c0-0.4,0-0.8,0-1.2
		c0.5-2.834-0.799-3.567-3.333-3.101c-18.837,3.334-37.305,7.768-53.774,17.936c-15.936,10.001-27.571,23.103-31.271,42.105
		c-2.267,11.635-0.3,23.137,1.4,34.639c2.867,19.302-4.301,33.972-20.368,44.706c-11.403,7.408-23.263,14.089-35.506,20.004
		c-2.934,1.631-4.733,3.098-4.268,5.266H644.921z M706.631,213.873c2.1,1.267,3.332,0,4.866-0.5
		c10.615-4.73,20.276-11.362,28.504-19.569c16.468-16.669,13.335-31.038-8.367-39.806l-0.533-0.267
		c-1.891-1.47-4.612-1.13-6.083,0.759c-0.239,0.309-0.436,0.647-0.585,1.008c-3.398,4.974-7.848,9.14-13.036,12.201
		c-4.033,2.401-3.634,4.167-0.866,7.135c8,8.601,8.634,18.036,2.733,28.037c-2.167,3.701-4.4,7.368-6.668,11.002H706.631z"/>
	<path fill="#F8AD84" d="M207.329,121.094c27.421-4.821,55.128-7.85,82.944-9.068c2.035,0,4.801-1.533,5.967,0.9
		c0.901,1.867-1.299,3.601-2.233,5.268c-31.872,57.008-53.741,117.85-69.377,181.058c-3.547,13.449-3.385,27.608,0.468,40.972
		c3.334,11.001,11.301,14.769,21.869,10.001c5.682-2.559,10.776-6.258,14.968-10.868c1.367-1.433,2.601-2.867,5.068-2.434
		c11.201,1.867,20.436-2.6,28.503-9.735c11.102-10.543,20.265-22.957,27.07-36.671c1.872-2.531,1.604-6.052-0.633-8.268
		c-2.701-2.634-5.435-1.601-8.202,0c-3.836,2.544-7.835,4.838-11.968,6.867c-5.7,2.534-9.001,0.934-11.201-5.001
		c-2.14-6.292-2.678-13.017-1.567-19.569c5.501-42.378,18.16-83.513,37.438-121.65c1.667-3.334,3.102-8.902,6.368-8.468
		c3.267,0.433,2.966,6.267,3.867,9.834c1.832,7.3,3.066,14.702,4.934,22.636l12.002-28.504c2.466,0.667,2.433,2.5,2.9,3.901
		c0.933,3,2,5.701,5.9,5.734s5.334-2.901,6.367-6.034c2.468-7.635,5.234-15.169,7.268-22.904c1.334-5.134,3.334-7.601,9.101-6.4
		c4.156,0.69,8.358,1.08,12.57,1.167c3.334,0.2,4.067,1.5,2.733,4.634c-9.269,21.502-17.304,43.539-24.938,65.675
		c-18.168,52.574-36.205,105.214-47.073,160.022c-0.2,0.966-0.733,1.9,0.468,3.033c5.167-1.734,8.801-6.301,13.702-9.068
		c1.399,2.567,0,4.634,0,6.667c-0.268,3.034-0.834,6.034,2.266,8.102c2.852,1.743,6.525,1.316,8.901-1.034
		c5.368-3.867,10.702-7.768,15.836-11.902c7.167-5.801,14.268-11.702,21.169-17.802c2.868-2.534,4.302-2.268,6.367,0.966
		c12.503,19.603,24.638,39.372,35.738,59.809c0.934,1.732,1.9,3.334,3.334,5.7c3.334-4.766,1.066-10.235,3.867-15.468
		c3.702,5.328,6.947,10.961,9.702,16.834c1.732,3.168,3.033,6.968,7.634,6.302c4.602-0.668,5.102-4.801,5.468-8.302
		c4.867-44.239,8.835-88.512,5.468-133.051c-0.635-3.313,0.443-6.722,2.867-9.068c30.27-29.233,57.82-61.158,82.311-95.379
		c1.734-2.4,2.9-4.301,6.668-2.967c39.538,14.002,77.978,30.337,113.615,52.674c6.668,4.134,12.868,8.934,19.569,12.901
		c5.066,3.034,4.634,5.901,1.233,10.002c-6.001,6.934-11.769,14.102-17.669,21.203c1.534,1.6,2.601,0,3.667-0.4
		c8.97-3.979,17.572-8.742,25.704-14.236c1.877-1.818,4.875-1.77,6.694,0.107c0.159,0.165,0.305,0.341,0.439,0.527
		c10.048,9.791,19.269,20.395,27.571,31.704c2.433,3.334,1.467,4.568-1.7,6.201c-10.142,4.909-19.259,11.696-26.872,20.002
		c-12.084,13.711-17.961,31.812-16.234,50.007c0.302,4.188-0.289,8.392-1.733,12.335c-5.001,13.735-10.002,27.438-14.803,41.24
		c-0.985,3.039-3.064,5.604-5.834,7.2c-8.934,5.368-18.27,10.002-27.571,14.669c-7.534,3.8-8.4,5.434-7.534,13.634
		c0.417,6.195,1.319,12.349,2.701,18.403c1.6,5.967,5.134,8.067,10.702,5.468c3.968-1.867,4.333,0,4.666,2.934
		c0.533,5.167,1.234,10.301,1.9,15.469c0,1.167,0,2.667,1.334,3.134s2.1-0.867,2.866-1.733
		c15.903-17.736,32.404-34.973,45.708-54.875c1.163-1.865,2.515-3.608,4.032-5.201c12.47-12.035,17.336-27.003,17.437-43.939
		c0-3.334,0-6.668-0.233-10.201c-1.834-22.937,8.834-39.372,26.67-52.308c4.4-3.334,5.801-1.8,7.302,2.667
		c11.901,36.238,11.134,72.61,0.833,108.882c-8.7,30.669-23.604,58.673-39.272,86.177c-24.875,43.55-56.036,83.193-92.479,117.65
		c-37.272,35.438-81.178,60.008-127.685,80.911c-49.417,22.508-100.738,40.582-153.354,54.006
		c-74.88,19.217-152.288,26.707-229.465,22.204c-13.068-0.833-26.27-0.7-39.171-2.667c-48.907-7.335-98.147-13.502-138.919-45.739
		c-25.038-19.804-43.54-43.706-47.24-76.678c-3.001-26.438,4.568-50.707,16.27-74.043c4.966-10.002,11.134-19.003,16.901-28.37
		c4.254-6.583,7.25-13.896,8.835-21.57c4-21.137-5.601-36.272-21.503-48.74c-13.001-10.2-28.57-15.102-43.338-21.403
		c-18.537-7.8-36.672-16.668-51.675-30.004c-20.002-17.734-26.169-39.571-19.068-65.208c5.117-17.086,13.173-33.15,23.804-47.473
		c6.666-9.335,13.902-18.102,20.968-27.07c1.034-1.333,1.967-3.567,4.067-2.934c1.534,0.5,1.5,2.667,1.967,4.134
		c14.87,46.958,33.03,92.812,54.341,137.219c2.845,5.956,5.812,11.867,8.901,17.734c0.934,1.767,1.099,4.934,4.133,4.268
		c3.034-0.666,2.335-3.534,2.834-5.534c1.867-7.768,3.568-15.602,5.335-23.335c0.215-1.867,1.076-3.602,2.433-4.901l8.701,14.134
		c1.367,2.2,2.667,4.468,4.067,6.668c1.232,2.641,4.108,4.099,6.968,3.534c3.1-0.668,3.8-3.334,4.434-5.802
		c3.935-15.734,7.878-31.447,11.834-47.139c0.368-1.5,0-3.7,1.634-4.233c1.632-0.533,2.966,1.567,4.1,2.866
		C-16.135,396.064-5.968,407,3.333,418.901c1.134,1.467,2.268,3.965,4.635,2.934c2.366-1.034,1.267-3.568,1.267-5.468
		c0-8.701,0-17.402,0-26.67c4.274,3.639,8.213,7.657,11.768,12.002c2.4,2.534,4.701,5.301,8.668,3.667
		c3.967-1.632,3.334-5.001,3.334-8.268c0-20.803,0.801-41.706-0.533-62.442c-0.512-7.358,2.047-14.6,7.068-20.002
		c27.804-34.905,47.806-73.477,55.574-117.75c2.141-13.861,2.689-27.92,1.634-41.906c-0.699-3.088,1.239-6.159,4.327-6.858
		c0.069-0.015,0.138-0.03,0.207-0.043c26.472-9.166,53.511-16.605,80.945-22.27C184.359,125.328,202.395,121.927,207.329,121.094z
		 M484.766,378.062c-0.753,13.024,1.529,26.046,6.668,38.039c4.924,11.98,16.215,20.132,29.138,21.035
		c18.535,1.635,34.071-6,48.307-16.501c9.334-6.868,18.235-14.235,28.236-20.203c6.614-3.821,12.513-8.761,17.437-14.603
		c17.126-19.925,31.121-42.341,41.506-66.475c10.567-25.904,17.003-52.507,12.835-80.778c-3.566-24.403-19.57-39.705-43.072-40.372
		c-12.68-0.171-25.171,3.064-36.172,9.368c-1.875,1.156-3.908,2.032-6.034,2.601c-17.104,3.181-32.413,12.618-42.939,26.47
		C508.602,278.448,484.665,323.588,484.766,378.062z M44.341,533.283c-2.167-1.137-3.9-2.952-4.936-5.169
		C23.847,505.2,8.402,482.287-6.934,459.373c-1.367-1.968-2.934-4.568-5.567-3.802c-3.134,0.9-1.767,3.968-1.567,6.202
		c2.222,24.447,4.445,48.761,6.668,72.942c2,21.303,4.566,42.539,8.268,63.609c0.466,2.633,0.166,5.867,2.801,7.701
		c1.732-1.033,1.532-2.335,1.732-3.501c1.355-12.176,1.99-24.421,1.9-36.672c0.5-15.202,0.7-30.438,1.133-45.639
		c0-1.502-0.166-3.667,1.5-4.268c2.234-0.834,2.935,1.6,3.901,2.934c8.568,11.568,17.036,23.336,25.604,34.838
		c5.399,7.301,10.868,14.535,17.201,22.97c1.396-33.871,5.521-67.573,12.335-100.78l2.035-0.367
		c16.936,25.57,33.904,51.106,51.406,77.444c1.365-3.567,1.135-7.55-0.633-10.935c-13.334-35.372-28.57-70.01-43.338-104.814
		c-2.128-5.146-4.612-10.137-7.434-14.936c-2.733-4.5-5.569-4.133-7.569,0.766c-1.234,3.169-2.238,6.422-2.999,9.736
		c-5.679,26.021-10.03,52.313-13.036,78.776C46.473,518.647,45.507,525.749,44.341,533.283z M76.71,336.923c0,1.2,0,2.4,0,3.601
		c2,33.605,27.238,49.841,58.208,37.271c21.536-8.701,35.371-25.636,46.674-45.005c3.677-6.003,6.042-12.719,6.934-19.703
		c0.519-3.758,2-7.318,4.301-10.335c15.902-22.836,29.038-47.006,34.204-74.744c5.034-27.004-13.334-54.574-40.004-59.441
		c-19.137-3.334-34.372,4.934-47.675,17.603c-8.561,8.724-16.286,18.234-23.068,28.403c-13.244,18.121-23.935,37.977-31.771,59.008
		C76.944,294.117,79.611,315.786,76.71,336.923z M141.92,694.305c-2.033-2.033-1.367-4.168-1.399-6.067
		c-0.468-35.238,0-70.477,1.9-105.682c0.533-10.635,0.3-10.868-10.635-10.268c-0.993,0.149-1.997,0.217-3.001,0.2
		c-6.433-0.668-8.468,2.4-8.967,8.668c-1.596,26.782-1.039,53.65,1.667,80.344c1.367,16.169,3.533,32.238,5.134,48.374
		c0.566,5.667,4.866,8.334,8.766,10.635c3.334,2,5.269-2.5,7.501-4.4c12.835-10.836,24.938-22.57,38.572-32.472
		c9.534-6.934,9.335-6.868,2.167-16.67c-2.533-3.332-4.801-3.633-7.901-1.199c-3.767,2.966-7.734,5.701-11.367,8.801
		c-7.569,6.468-14.97,13.103-22.437,19.669V694.305z M420.757,554.985c4.677-1.83,8.711-4.995,11.602-9.102
		c9.635-11.502,18.969-23.336,28.805-34.638c7.4-8.535,9.234-8.135,13.535,2.033c4,9.401,7.767,18.87,11.534,28.371
		c1.534,3.9,3.033,4.301,5.269,0.467c3.099-5.367,6.668-10.469,9.566-15.97c12.47-23.97,24.737-48.039,37.04-72.108
		c0.666-1.302,2.133-2.601,0.599-4.468c-5.739,2.379-10.86,6.039-14.968,10.701c-10.969,10.602-20.403,22.569-30.605,33.838
		c-1.432,1.567-2.433,4.501-4.801,4.035c-2.365-0.468-2.666-3.702-3.332-5.869c-2.868-8.967-5.469-17.968-8.302-26.937
		c-0.566-1.834-1.034-4.468-3.066-4.9c-2.601-0.533-3.334,2.333-4.601,4.067c-15.607,22.805-29.514,46.729-41.606,71.577
		c-3.301,5.843-5.559,12.217-6.668,18.835V554.985z M408.057,534.517c-2.969-12.97-5.702-26.004-9.068-38.872
		c-1.401-5.334,0-8.034,4.833-10.202c12.103-5.267,23.97-11.068,36.071-16.369c4.901-2.133,4.268-3.7,0.667-6.667
		c-16.669-13.769-33.571-27.271-50.94-40.173c-1.867-1.367-4-3.867-6.167-1.232c-2.168,2.633,0.966,3.9,2.4,5.234
		c11.445,10.668,22.947,21.247,34.504,31.736c3.134,2.834,4.168,4.668-0.698,6.468c-10.091,3.757-20.192,7.59-30.305,11.502
		c-3.701,1.434-4.135-0.566-3.968-3.334c0.499-7.167,0.934-14.368,1.533-21.569c0-1.9,0.533-3.734-1.9-4.233
		c-2.433-0.5-4.468-0.968-5.8,1.6c-0.541,1.083-1.021,2.195-1.434,3.334c-8.269,21.069-16.669,42.039-23.97,63.343
		c-3.334,9.501-6.668,18.936-9.635,28.437c-0.468,1.433-2.034,4.2,1.1,4.101c6.822-0.425,13.5-2.156,19.669-5.102
		c3.567-1.6,3.101-5.734,4-8.9c2.768-9.835,5.435-19.704,8.169-29.538c0.399-1.433,0.333-3.334,2.533-4.233
		c10.368,10.436,18.303,23.203,28.405,34.604V534.517z M358.817,611.394c0.707-1.404,2.16-2.274,3.732-2.233
		c12.502-2.768,24.971-5.534,37.506-8.169c3.566-0.733,5.366-1.833,3.334-5.9c-2.016-4.343-3.785-8.794-5.302-13.336
		c-1.467-4.333-3.667-4.801-7.667-2.866c-15.302,7.367-30.805,14.368-46.174,21.669c-6.853,2.993-13.462,6.516-19.769,10.535
		c0.833,1.734,2.2,1.567,3.334,1.867c10.707,2.573,21.198,5.984,31.37,10.201c1.7,0.833,4.235,1.301,4.235,3.701
		s-2.535,2.233-4.002,3.001c-19.152,9.568-37.811,20.094-55.906,31.536c-1.701,1.134-3.802,1.968-4.601,4.701
		c1.667,0,2.799,0.268,3.967,0.268h84.044c1.201,0,2.4,0,3.602-0.168c3.066,0,4.067-2.1,4.067-4.866
		c0-2.768-2.135-2.934-4.201-3.068c-6.668-0.4-13.603-0.733-20.369-1.199c-6.769-0.468-14.47-1.101-21.736-1.667l-0.301-1.401
		l45.674-23.937L358.817,611.394z M200.561,516.946c0.875-0.577,1.709-1.213,2.5-1.9c30.582-32.204,61.151-64.43,91.712-96.679
		c0.901-0.966,2.701-1.933,1.967-3.333c-1.001-2.035-3.334-1.667-5.334-1.834c-30.004-2.267-60.008-2.4-90.012-2.333
		c-1.634,0-4.101-0.701-4.3,1.933c-0.2,2.634,2.433,2.668,4.3,2.834c15.136,1.467,30.304,2.601,45.373,4.335
		c7.734,0.898,15.735,0.2,23.97,3.066l-46.672,49.673c-0.668,0.733-1.401,1.602-2.5,1.066c-1.101-0.533-0.966-2.065-1.134-3.332
		c-1.9-13.336-3.834-26.672-5.602-39.773c-0.366-2.801-1.467-4.801-4.333-4.733c-2.867,0.065-2.368,2.767-2.533,4.601
		c-0.934,9.534-1.734,19.104-2.535,28.671C203.895,478.275,202.261,497.145,200.561,516.946z M346.714,467.308
		c-12.102-2.635-22.938-5.201-33.838-7.336c-4.566-0.899-4.4-2.4-1.567-5.199c3.968-3.968,7.802-8.067,11.77-12.002
		c11.378-11.29,22.758-22.558,34.137-33.804c1.066-1.068,2.934-2.102,1.566-3.902c-1.366-1.8-2.866-0.433-4.167,0.4
		c-1.3,0.833-1.633,1.167-2.434,1.767c-16.979,12.736-33.938,25.471-50.872,38.204c-6.668,5.102-13.636,10.002-21.571,16.036
		l36.873,10.602l-11.502,10.302c-13.697,11.38-26.773,23.488-39.172,36.271c-1.467,1.6-4,3.334-3.334,5.4
		c0.667,2.066,3.901,1.4,5.969,1.366c15.402-0.433,30.803-1.132,46.205-1.467c4.077,0.333,7.923-1.937,9.602-5.667
		c0.733-1.534,2.733-2.9,1.567-4.767c-1.167-1.867-2.934-0.868-4.468-0.868c-7.267,0-14.568,0-23.802,0L346.714,467.308z
		 M302.609,616.995l-0.4-1.534c-7.8,0-15.569,0-23.336,0c-1.634,0-3.8,0.633-4.035-2.234c-0.333-3.934,6.135-15.603,10.002-17.535
		c11.101-5.802,23.336-8.268,35.338-11.035c1.768-0.4,4.834,0.2,4.501-2.601c-0.233-2.166-2.967-1.232-4.601-1.267
		c-18.769-0.566-37.571-0.967-56.341-1.6c-8.468-0.268-8.634-0.501-10.634,8c-8.069,33.905-11.369,68.543-15.436,103.048
		c0,1.534-0.701,3.334,1.734,3.701c2.433,0.366,3.332-1.801,3.866-3.769c5.189-15.129,11.427-29.878,18.669-44.139
		c1.585-3.442,4.161-6.333,7.401-8.301c11.068-6.701,22.17-13.702,33.271-20.603V616.995z M125.152,475.175
		c0.2,21.736,2.133,30.004,8.333,39.571c9.602,15.003,22.57,14.702,31.771-0.533c8.468-14.067,10.903-30.004,14.235-45.573
		c2.735-12.668,6.167-25.369,3.767-38.537c-1.567-8.603-4.934-16.202-14.101-19.303c-9.168-3.101-16.936,0-23.804,5.902
		c-5.488,5.035-9.656,11.344-12.135,18.367C128.182,447.856,125.45,461.434,125.152,475.175z M208.496,582.355h-3.602
		c-10,0.233-10,0.233-9.567,10.468c0,2.2,0,4.4,0,6.668c0.6,20.003,1.199,40.006,1.933,60.009c0,1.967-0.499,5.134,2.468,5.366
		c2.966,0.235,2.801-2.766,3.334-4.833c5.001-21.837,10.002-43.673,15.101-65.442c2.868-12.436,3.034-12.4-9.734-12.235H208.496z
		 M217.096,558.419c-1.034-4.801-2.233-11.034-3.7-17.235c-0.768-3.334-2.733-2.334-4.335-0.733
		c-4.233,4.234-8.3,8.567-12.501,12.835c-1.734,1.734-1.701,3.134,0.799,3.867c5.702,1.734,11.469,3.334,17.17,5.034
		c2.266,0.7,2.766-0.333,2.5-3.768H217.096z"/>
	<path fill="#5AC6C4" d="M-49.006,431.935c-2.4-0.333-2.768-2.133-3.534-3.334c-43.541-72.475-76.478-149.285-95.214-231.697
		c-0.968-3.684-1.626-7.442-1.967-11.235c-0.366-6.201-3.1-9.001-9.467-9.535c-7.869-0.634-15.702-2.234-25.103-3.634
		c6.901-7.168,12.733-13.335,18.768-19.403c25.737-25.87,53.608-48.907,85.879-66.209c22.636-12.101,46.472-20.603,72.376-21.969
		c50.006-2.601,88.513,28.837,97.081,79.344c6,35.338-1.268,68.876-14.97,101.347c-13.062,29.761-30.762,57.262-52.439,81.478
		c-1.467,1.7-5.801,3.066-3.068,6.301c2.735,3.233,5.035-0.267,6.901-2.134c1.801,0.967,1.268,2.333,1.301,3.334
		c0,19.625,0.067,39.25,0.2,58.874c0,1.534,0.833,3.667-0.768,4.435c-2.233,1.066-2.866-1.602-4-2.733
		c-10.968-11.403-21.87-22.87-33.739-33.339c-12.468-11.001-17.469-10.001-21.869,5.867
		C-38.538,388.963-43.606,410.266-49.006,431.935z M-19.502,240.81c4.701,0.733,9.168,1.601,13.669,2.1
		c5.734,0.601,8.2-2.3,7.034-7.901c-0.375-1.771-0.854-3.519-1.434-5.234c-7.769-22.741-18.092-44.527-30.77-64.942
		c-2.287-4.005-5.242-7.59-8.735-10.601c-5.534-4.368-9.267-4.001-12.601,2.133c-10.83,19.648-19.547,40.389-26.004,61.875
		c-1.281,3.117,0.205,6.681,3.323,7.963c0.003,0.001,0.006,0.003,0.011,0.005c3.334,1.733,8.668,0.8,9.602,4.701
		c0.799,3.333-1.201,7.368-1.934,11.101c0,0.4,0,0.8-0.2,1.2c-0.699,2.667,0.234,4.1,3.034,4.601
		c15.055,2.55,30.253,4.165,45.507,4.833c2.701,0,3.6-0.899,2.533-3.667c-1.608-2.468-2.665-5.254-3.101-8.167H-19.502z"/>
	<path fill="#ADB7DC" d="M456.229,388.93c-2.2-0.901-2.667-3.034-3.567-4.733c-11.935-22.004-25.003-43.34-38.705-64.343
		c-0.999-1.537-2.113-2.998-3.334-4.367c-6.668-7.501-10.5-7.935-18.302-1.633c-12.936,10.434-25.737,21.036-38.605,31.504
		c-1.501,1.234-3.334,3.334-5.101,2.3c-1.768-1.034-0.434-3.667,0-5.567c5.501-30.004,14.668-59.008,23.703-88.012
		c14.854-49.457,32.416-98.058,52.607-145.586c2.289-5.771,5.148-11.299,8.535-16.502c3.332-4.967,5.399-4.801,7.566,0.767
		c3.336,9.476,5.126,19.426,5.302,29.47c0.934,16.669,1.499,33.338,1.865,49.807c0,4.867,0.768,6.034,5.534,3.333
		c22.57-12.135,45.773-23.069,69.276-33.338c8.802-3.833,17.869-7.001,26.938-10.201c2.101-0.767,5.067-2.633,6.668-0.667
		c1.601,1.967-0.833,4.4-1.967,6.368c-9.062,14.881-19.355,28.977-30.771,42.139c-18.937,22.804-38.104,45.406-60.241,65.275
		c-1.589,1.19-2.344,3.192-1.934,5.134c3.768,29.571,1.934,59.175,0,88.745c-0.968,14.402-2.534,28.738-3.901,43.074
		C457.73,384.43,458.03,386.93,456.229,388.93z"/>
	<path fill="#B1DED5" d="M362.916,142.229c-3.967-7.734-7.301-14.469-10.835-21.069c-4.967-9.268-8.368-9.468-15.502-1.567
		c-16.137,17.803-24.903,39.538-32.504,61.708c-9.21,25.817-15.996,52.436-20.27,79.511c-1.538,8.298-1.093,16.843,1.301,24.937
		c2.999,9.134,9.267,12.235,18.202,8.734c4.268-1.633,8.234-4.001,12.235-6.001c1.832,1.434,0.633,2.767,0,3.833
		c-6.124,11.17-13.839,21.39-22.903,30.338c-2.482,2.332-5.237,4.358-8.202,6.034c-12.501,7.035-24.67,3.634-31.771-8.801
		c-6.167-10.768-7.134-22.77-7.9-34.771c-1.401-22.003,4.167-42.84,10.535-63.542c11.667-38.005,26.237-74.677,48.207-108.014
		c7.841-12.58,17.879-23.646,29.637-32.672c6.154-4.517,13.257-7.573,20.77-8.934c12.868-2.334,21.069,3.967,22.035,17.068
		c0.386,7.014-0.449,14.042-2.466,20.771C370.551,120.227,367.184,130.861,362.916,142.229z"/>
	<path fill="#B6DAEE" d="M644.888,425.102c-0.633-2.168,1.334-3.635,4.168-5.034c12.243-5.915,24.103-12.596,35.505-20.004
		c16.068-10.733,23.336-25.402,20.368-44.705c-1.699-11.501-3.667-23.004-1.399-34.638c3.7-19.003,15.336-32.271,31.271-42.106
		c16.47-10.001,34.938-14.702,53.773-17.936c2.601-0.467,3.901,0.267,3.334,3.101c0,0.4,0,0.8,0,1.2
		c-1.033,4.468,1.567,10.335-1.699,13.336c-3.267,3-8.269,1.966-12.536,2.866c-10.231,1.957-20.118,5.417-29.336,10.269
		c-19.57,10.668-27.838,27.337-26.672,49.173c0.989,10.771,1.313,21.593,0.969,32.405c-0.918,13.912-7.497,26.841-18.203,35.771
		c-16.002,14.202-34.805,24.169-53.007,35.038c-2.601,1.534-3.834,1.334-4.202-2C646.688,436.703,645.822,431.569,644.888,425.102z"
		/>
	<path fill="#6DACB0" d="M706.596,213.873c2.268-3.668,4.568-7.301,6.668-11.002c5.9-10.001,5.267-19.436-2.733-28.037
		c-2.767-2.967-3.167-4.734,0.866-7.135c5.188-3.062,9.638-7.227,13.036-12.201c0.913-2.212,3.446-3.266,5.658-2.353
		c0.361,0.149,0.701,0.346,1.01,0.585l0.533,0.267c21.802,8.768,24.835,23.003,8.367,39.806
		c-8.228,8.207-17.889,14.838-28.504,19.569C710.065,214.006,708.697,215.14,706.596,213.873z"/>
	<path fill="#F8AD84" d="M466.031,122.194c1.166,1.667,3.001,1.667,4.768,2.034c11.702,2.533,23.336,5.066,35.038,7.834
		c3.513,1.003,6.973,2.182,10.367,3.533c-7.168,4.634-15.168,6.668-22.47,10.201c-11.901,5.668-23.869,11.168-35.738,16.869
		c-2.999,1.4-4.167,1.267-4.268-2.467c-0.299-11.369-0.733-22.736-1.433-34.105c-0.267-4.167,0.834-5.167,4.967-4.567
		c2.701,0.4,5.469,3.334,8.368,0.467h0.3L466.031,122.194z"/>
	<path d="M484.766,378.062c0-54.574,23.836-99.614,55.94-141.42c10.538-13.827,25.845-23.239,42.939-26.403
		c2.128-0.568,4.161-1.445,6.035-2.601c11.001-6.303,23.493-9.539,36.171-9.368c23.337,0.667,39.506,15.969,43.073,40.373
		c4.167,28.27-2.268,54.874-12.836,80.777c-10.384,24.135-24.38,46.55-41.505,66.476c-4.923,5.839-10.822,10.78-17.437,14.603
		c-10,5.967-18.901,13.334-28.237,20.203c-14.234,10.5-29.771,18.134-48.307,16.501c-12.92-0.903-24.212-9.057-29.138-21.037
		C486.306,404.158,484.013,391.111,484.766,378.062z M548.641,413.3c23.219-2.328,44.678-13.415,60.009-31.005
		c25.37-28.37,44.273-60.841,51.94-98.813c3.634-18.002,5.434-36.104-0.666-54.007c-4.506-15.159-18.665-25.374-34.472-24.87
		c-18.479-0.081-36.21,7.3-49.173,20.47c-19.241,18.484-35.936,39.45-49.641,62.342c-16.796,26.884-24.672,58.386-22.503,90.012
		C505.936,400.532,520.239,413.367,548.641,413.3z"/>
	<path d="M44.341,533.283c1.032-7.534,2-14.636,2.934-21.704c3.006-26.463,7.357-52.756,13.034-78.776
		c0.763-3.314,1.766-6.567,3.001-9.736c2-4.898,4.833-5.266,7.567-0.766c2.84,4.842,5.336,9.877,7.469,15.068
		c14.901,34.772,30.004,69.444,43.338,104.814c1.769,3.387,1.999,7.367,0.635,10.935c-17.503-26.336-34.472-51.874-51.407-77.443
		l-2.035,0.366c-6.732,33.26-10.766,67.006-12.067,100.913c-6.335-8.433-11.802-15.667-17.203-22.969
		c-8.568-11.602-17.036-23.336-25.604-34.837c-0.966-1.334-1.667-3.769-3.9-2.936c-1.667,0.601-1.467,2.768-1.5,4.268
		c-0.433,15.203-0.633,30.438-1.134,45.641c0.09,12.249-0.544,24.496-1.9,36.672c-0.2,1.166,0,2.466-1.734,3.499
		c-2.633-1.832-2.333-5.066-2.801-7.701c-3.7-21.068-6.268-42.305-8.268-63.608c-2.221-24.313-4.445-48.629-6.668-72.943
		c-0.198-2.233-1.565-5.3,1.567-6.2c2.635-0.767,4.202,1.833,5.569,3.8c15.446,22.915,30.894,45.829,46.339,68.743
		C40.609,530.474,42.278,532.188,44.341,533.283z"/>
	<path d="M76.71,336.923c2.901-21.069,0.233-42.739,7.802-63.342c7.853-21.059,18.565-40.937,31.837-59.075
		c6.784-10.169,14.509-19.679,23.07-28.404c13.336-12.668,28.537-21.103,47.673-17.602c26.67,4.867,44.972,32.438,40.006,59.441
		c-5.168,27.737-18.302,51.907-34.205,74.744c-2.3,3.017-3.782,6.576-4.302,10.335c-0.893,6.984-3.255,13.698-6.934,19.702
		c-11.302,19.37-25.136,36.305-46.672,45.007c-30.972,12.568-56.208-3.668-58.208-37.272
		C76.645,339.256,76.71,338.056,76.71,336.923z M82.244,308.785c-0.246,5.405,0.215,10.817,1.367,16.102
		c5.667,27.838,24.57,37.939,50.574,26.671c15.651-6.925,29.38-17.554,40.006-30.972c22.803-28.07,42.605-57.708,49.24-94.112
		c5.8-31.905-24.77-62.509-56.309-52.741c-10.737,3.428-20.314,9.763-27.671,18.303c-14.616,16.27-27.312,34.168-37.838,53.34
		c-10.934,19.57-19.036,40.306-19.369,63.342V308.785z"/>
	<path d="M141.92,694.237c7.467-6.666,14.868-13.334,22.437-19.635c3.633-3.101,7.6-5.834,11.367-8.803
		c3.101-2.433,5.368-2.266,7.901,1.201c7.168,9.702,7.367,9.635-2.167,16.668c-13.635,10.002-25.737,21.637-38.572,32.473
		c-2.233,1.899-4.2,6.4-7.5,4.4c-3.902-2.301-8.202-4.969-8.768-10.636c-1.602-16.135-3.768-32.204-5.134-48.372
		c-2.706-26.694-3.263-53.562-1.667-80.345c0.499-6.268,2.534-9.334,8.967-8.668c1.004,0.017,2.008-0.051,3.001-0.2
		c10.936-0.601,11.168-0.366,10.635,10.268c-1.8,35.205-2.368,70.443-1.9,105.682C140.553,690.07,139.887,692.204,141.92,694.237z"
		/>
	<path d="M420.757,554.919c1.095-6.664,3.353-13.086,6.668-18.97c12.093-24.848,25.999-48.771,41.606-71.575
		c1.199-1.734,2-4.601,4.601-4.067c2.032,0.433,2.5,3.066,3.066,4.9c2.833,8.967,5.434,17.968,8.302,26.937
		c0.666,2.167,0.634,5.368,3.332,5.867c2.701,0.5,3.334-2.466,4.801-4.033c10.202-11.269,19.637-23.338,30.605-33.838
		c4.114-4.639,9.235-8.276,14.968-10.636c1.534,1.867,0,3.168-0.599,4.468c-12.303,24.069-24.57,48.141-37.04,72.11
		c-2.833,5.5-6.468,10.601-9.566,15.969c-2.235,3.833-3.734,3.333-5.269-0.467c-3.768-9.502-7.534-18.969-11.534-28.37
		c-4.301-10.002-6.135-10.568-13.535-2.035c-9.834,11.369-19.17,23.138-28.805,34.64
		C429.468,549.924,425.434,553.089,420.757,554.919z"/>
	<path d="M408.057,534.449c-10.002-11.401-18.037-24.104-28.405-34.771c-2.2,1.033-2.134,2.801-2.533,4.234
		c-2.734,9.702-5.401,19.702-8.169,29.704c-0.899,3.334-0.433,7.301-4,8.9c-6.169,2.945-12.847,4.677-19.669,5.102
		c-3.134,0-1.567-2.668-1.1-4.101c3.134-9.501,6.4-18.936,9.635-28.437c7.301-21.403,15.701-42.374,23.97-63.343
		c0.413-1.139,0.893-2.251,1.434-3.334c1.332-2.567,3.667-2.034,5.8-1.6c2.135,0.434,2.034,2.333,1.9,4.233
		c-0.6,7.201-1.032,14.402-1.533,21.569c-0.167,2.9,0.267,4.9,3.968,3.334c10.112-3.889,20.214-7.724,30.305-11.502
		c4.866-1.8,3.832-3.634,0.698-6.468c-11.602-10.468-23.103-21.047-34.504-31.736c-1.435-1.334-4.434-2.769-2.4-5.234
		c2.034-2.468,4.3,0,6.167,1.232c17.369,12.902,34.239,26.404,50.941,40.173c3.6,3,4.233,4.566-0.668,6.667
		c-12.102,5.301-23.969,11.103-36.071,16.369c-5.001,2.168-6.234,4.868-4.833,10.202
		C402.355,508.445,405.088,521.481,408.057,534.449z"/>
	<path d="M358.817,611.326l34.903,18.603l-45.672,23.937l0.299,1.401c7.269,0.566,14.502,1.167,21.736,1.667
		c7.235,0.499,13.569,0.799,20.37,1.199c2.067,0,4.167,0.233,4.2,3.066c0.034,2.834-0.999,4.701-4.067,4.868
		c-1.199,0-2.4,0.166-3.6,0.166h-84.045c-1.167,0-2.301,0-3.968-0.266c0.801-2.733,2.901-3.567,4.601-4.701
		c18.096-11.442,36.756-21.968,55.908-31.538c1.467-0.767,4-0.799,4-2.999s-2.533-2.868-4.233-3.701
		c-10.174-4.217-20.663-7.628-31.37-10.201c-1.068-0.3-2.436,0-3.334-1.867c6.305-4.02,12.915-7.542,19.769-10.535
		c15.369-7.301,30.871-14.302,46.172-21.669c4.002-1.935,6.202-1.467,7.669,2.866c1.517,4.542,3.286,8.993,5.302,13.336
		c1.899,4.067,0,5.167-3.334,5.9c-12.535,2.633-25.004,5.401-37.506,8.168C361.005,608.972,359.515,609.874,358.817,611.326z"/>
	<path d="M200.561,516.946c1.7-20.002,3.334-38.805,4.966-57.674c0.801-9.568,1.602-19.136,2.535-28.672
		c0-1.832-0.368-4.565,2.533-4.601c2.901-0.032,3.967,1.935,4.333,4.735c1.767,13.334,3.702,26.67,5.602,39.771
		c0.167,1.134-0.2,2.533,1.134,3.334s1.833-0.333,2.5-1.066l46.672-49.673c-8.235-2.868-16.235-2.167-23.97-3.068
		c-15.068-1.733-30.237-2.866-45.373-4.333c-1.867,0-4.534,0.167-4.3-2.833c0.233-3.001,2.666-1.934,4.3-1.934
		c30.004,0,60.008,0,90.012,2.334c1.9,0,4.333-0.2,5.334,1.833c0.733,1.434-1.066,2.4-1.967,3.334
		c-30.538,32.271-61.107,64.497-91.712,96.679C202.336,515.781,201.467,516.394,200.561,516.946z"/>
	<path d="M346.714,467.44l-49.007,45.173c9.235,0,16.668,0,23.804,0c1.532,0,3.567-0.601,4.466,0.866
		c0.901,1.467-0.833,3.334-1.566,4.768c-1.628,3.758-5.447,6.082-9.534,5.801c-15.401,0.334-30.803,1.033-46.207,1.467
		c-2.066,0-5.1,1.033-5.967-1.367c-0.866-2.4,1.801-3.8,3.334-5.399c12.399-12.783,25.476-24.892,39.173-36.271l11.501-10.303
		l-36.872-10.601c7.935-5.901,14.77-10.936,21.57-16.037c16.957-12.712,33.916-25.447,50.873-38.204
		c0.801-0.601,1.6-1.201,2.433-1.767c0.834-0.566,2.834-2.2,4.168-0.4c1.334,1.8-0.5,2.833-1.567,3.9
		c-11.356,11.268-22.735,22.536-34.137,33.805c-3.967,3.934-7.802,8.035-11.769,12.002c-2.834,2.8-3,4.301,1.566,5.2
		C323.777,462.239,334.613,464.807,346.714,467.44z"/>
	<path d="M302.609,617.128c-11.102,6.9-22.203,13.901-33.338,20.703c-3.239,1.967-5.816,4.857-7.401,8.3
		c-7.241,14.262-13.479,29.01-18.668,44.14c-0.633,1.967-1.234,4.034-3.867,3.767c-2.633-0.266-1.9-2.166-1.734-3.7
		c4.067-34.504,7.369-69.142,15.436-103.048c2-8.5,2.167-8.268,10.635-8c18.769,0.634,37.571,1.034,56.34,1.6
		c1.634,0,4.367-0.898,4.601,1.267c0.335,2.801-2.733,2.2-4.501,2.601c-12.067,2.769-24.235,5.234-35.338,11.036
		c-3.767,1.933-10.233,13.602-10,17.534c0.233,2.868,2.4,2.234,4.033,2.234c7.802,0,15.569,0,23.337,0L302.609,617.128z"/>
	<path d="M125.152,475.175c0.31-13.707,3.042-27.251,8.067-40.006c2.479-7.024,6.646-13.333,12.135-18.369
		c6.868-5.933,14.668-9.001,23.804-5.9c9.134,3.101,12.534,10.7,14.101,19.303c2.4,13.334-1.032,25.869-3.767,38.538
		c-3.333,15.603-5.767,31.505-14.235,45.572c-9.201,15.236-22.169,15.536-31.771,0.533
		C127.284,505.079,125.352,496.944,125.152,475.175z M136.218,475.941c0,8.167,0.735,18.302,7.869,26.67
		c4.466,5.233,9.034,5.368,13.768,0.4c4.087-4.704,6.991-10.315,8.468-16.368c3.211-11.332,5.695-22.857,7.436-34.506
		c1.602-6.853,1.292-14.014-0.901-20.703c-3.334-8.533-11.001-11.266-18.936-6.666c-4.499,2.761-8.002,6.883-10.002,11.767
		C138.645,448.993,136.021,462.413,136.218,475.941z"/>
	<path d="M208.428,582.355c12.768-0.165,12.603-0.2,9.702,12.168c-5.134,21.771-10.002,43.607-15.102,65.444
		c-0.467,2.065-0.267,5.099-3.334,4.833c-3.068-0.268-2.4-3.334-2.467-5.368c-0.733-20.002-1.334-40.005-1.933-60.008
		c0-2.201,0-4.401,0-6.667c-0.467-10.234-0.5-10.234,9.567-10.47L208.428,582.355z"/>
	<path d="M217.031,558.419c0.266,3.334-0.235,4.468-2.568,3.768c-5.702-1.732-11.469-3.334-17.169-5.034
		c-2.5-0.733-2.535-2.133-0.8-3.867c4.2-4.268,8.268-8.601,12.502-12.835c1.6-1.601,3.567-2.434,4.333,0.733
		C214.796,547.385,215.997,553.618,217.031,558.419z"/>
	<path d="M-19.57,240.81c0.405,2.906,1.429,5.691,3.001,8.167c1.066,2.768,0.167,3.801-2.533,3.667
		c-15.198-0.676-30.34-2.29-45.34-4.833c-2.8-0.5-3.734-1.934-3.034-4.601c0-0.4,0-0.8,0.2-1.2
		c0.733-3.733,2.733-7.734,1.933-11.101c-0.932-3.901-6.366-2.967-9.6-4.701c-3.119-1.276-4.614-4.837-3.339-7.956
		c0.001-0.004,0.003-0.008,0.005-0.012c6.435-21.484,15.129-42.224,25.937-61.875c3.534-6.134,7.234-6.667,12.769-2.133
		c3.493,3.011,6.446,6.596,8.733,10.601c12.657,20.418,22.957,42.204,30.705,64.942c0.478,1.721,0.856,3.469,1.134,5.234
		c1.167,5.601-1.299,8.501-7.034,7.901C-10.401,242.41-14.869,241.543-19.57,240.81z M-7.4,238.309c4.067,0,4.4-2.034,3.334-5.1
		c-8.286-25.285-20.043-49.296-34.939-71.343c-5.434-7.702-7.5-7.401-11.9,0.833c-8.747,17.289-16.158,35.222-22.171,53.641
		c-1.5,4.2,0.435,5.667,4.034,6.867c12.102,4.067,24.603,6.668,36.973,10.002C-23.87,235.243-15.668,236.609-7.4,238.309z"/>
	<path fill="#5AC6C4" d="M548.641,413.3c-28.402,0-42.705-12.768-44.339-36.004c-2.169-31.626,5.706-63.129,22.503-90.013
		c13.706-22.893,30.399-43.857,49.64-62.342c12.964-13.169,30.695-20.55,49.175-20.469c15.805-0.504,29.965,9.711,34.472,24.87
		c6.101,17.902,4.301,36.004,0.666,54.007c-7.667,37.971-26.67,70.443-51.94,98.813C593.466,399.839,571.938,410.979,548.641,413.3z
		 M593.681,272.014c-1.05,0.011-2.097,0.101-3.134,0.267c-27.203,5.534-53.34,35.871-37.704,72.776
		c2.505,7.433,10.563,11.426,17.994,8.92c0.62-0.208,1.224-0.46,1.808-0.752c13.068-5.467,21.604-14.969,23.003-29.604
		c0.257-3.591,1.478-7.046,3.534-10.001c4.882-6.861,8.411-14.588,10.4-22.77C612.351,279.182,606.583,271.948,593.681,272.014z"/>
	<path fill="#B3D7F2" d="M82.244,308.719c0.333-23.037,8.435-43.772,19.303-63.575c10.525-19.173,23.222-37.07,37.839-53.341
		c7.355-8.54,16.932-14.874,27.669-18.302c31.538-9.768,62.11,20.836,56.308,52.74c-6.668,36.405-26.437,66.043-49.24,94.113
		c-10.624,13.417-24.355,24.047-40.006,30.971c-26.002,11.335-44.905,1.234-50.572-26.67
		C82.428,319.42,81.992,314.064,82.244,308.719z M99.648,298.017c0.366,3.334,0.466,6.668,1.134,10.002
		c4.767,23.336,19.236,30.337,40.572,19.769c11.271-5.692,21.116-13.851,28.803-23.87c15.702-19.803,28.971-40.772,34.539-65.842
		c3.731-16.168-3.983-32.809-18.737-40.405c-12.968-6.368-29.537-2.567-41.338,10.001c-14.419,15.329-26.313,32.849-35.238,51.907
		C103.538,271.59,100.224,284.673,99.648,298.017L99.648,298.017z"/>
	<path fill="#F8AD84" d="M136.218,475.941c-0.154-13.536,2.514-26.958,7.834-39.406c2.002-4.884,5.505-9.006,10.002-11.767
		c7.935-4.635,15.536-1.902,18.936,6.666c2.192,6.689,2.503,13.851,0.9,20.704c-1.741,11.647-4.223,23.173-7.434,34.505
		c-1.478,6.053-4.382,11.664-8.468,16.368c-4.735,4.968-9.301,4.833-13.769-0.4C136.953,494.243,136.218,484.108,136.218,475.941z"
		/>
	<path fill="#ED3525" d="M-7.4,238.309c-8.202-1.7-16.47-3.066-24.57-5.167c-12.37-3.333-24.871-5.867-36.973-10.001
		c-3.6-1.2-5.534-2.667-4.034-6.868c6.011-18.419,13.424-36.351,22.169-53.641c4.402-8.234,6.468-8.534,11.902-0.833
		c14.849,22.056,26.563,46.066,34.805,71.343C-3,236.275-3.333,238.409-7.4,238.309z"/>
	<path d="M593.681,272.014c12.902,0,18.67,7.167,15.901,18.869c-1.989,8.182-5.519,15.909-10.4,22.77
		c-2.057,2.955-3.277,6.41-3.534,10.001c-1.399,14.635-10.002,24.137-23.003,29.604c-7.018,3.504-15.546,0.657-19.051-6.36
		c-0.292-0.584-0.543-1.188-0.751-1.807c-15.736-36.905,10.501-67.242,37.704-72.776
		C591.584,272.137,592.631,272.037,593.681,272.014z M554.075,323.321c-0.166,11.968,4.968,15.068,15.769,10.001
		c6.747-3.497,12.723-8.315,17.569-14.168c7.233-7.786,12.563-17.143,15.569-27.337c2.968-10.635-1.601-15.469-12.303-13.335
		C571.078,282.449,554.41,302.785,554.075,323.321z"/>
	<path d="M99.648,298.017c0.612-13.254,3.925-26.243,9.734-38.171c8.926-19.058,20.819-36.579,35.238-51.907
		c11.802-12.734,28.37-16.669,41.338-10.001c14.753,7.596,22.468,24.237,18.737,40.405c-5.568,25.07-18.837,46.04-34.539,65.842
		c-7.687,10.019-17.531,18.178-28.803,23.87c-21.336,10.568-35.806,3.567-40.572-19.769
		C100.114,304.819,100.014,301.385,99.648,298.017z M193.693,252.377c-0.934-13.702-1.867-26.103-7.8-37.404
		c-3.334-6.468-8.335-10.936-16.036-10.735c-9.569-0.111-18.772,3.667-25.504,10.469c-17.634,19.603-32.237,41.438-38.604,67.609
		c-2.901,12.035-3.334,24.203,2.467,35.771c4.767,9.335,12.435,12.835,22.436,9.769c10.811-3.231,20.591-9.229,28.372-17.403
		c12.55-13.247,23.157-28.21,31.504-44.439C193.165,261.987,194.287,257.155,193.693,252.377L193.693,252.377z"/>
	<path fill="#EE3425" d="M554.075,323.321c0.268-20.536,16.67-40.872,36.672-44.907c10.701-2.167,15.269,2.667,12.302,13.336
		c-3.006,10.193-8.335,19.551-15.568,27.337c-4.847,5.853-10.822,10.671-17.569,14.168
		C559.043,338.39,553.909,335.29,554.075,323.321z"/>
	<path fill="#F8AD84" d="M193.693,252.377c0.546,4.798-0.637,9.631-3.334,13.636c-8.345,16.229-18.952,31.192-31.504,44.439
		c-7.78,8.173-17.559,14.172-28.37,17.403c-10.002,3.067-17.669-0.434-22.437-9.769c-5.868-11.568-5.367-23.736-2.468-35.771
		c6.368-26.17,20.97-48.006,38.606-67.609c6.738-6.81,15.956-10.588,25.536-10.469c7.702-0.2,12.668,4.268,16.035,10.735
		C191.826,226.274,192.76,238.676,193.693,252.377z"/>
</g>
</svg>
